<?xml version="1.0" encoding="UTF-8"?>
<!-- Created with Inkscape (http://www.inkscape.org/) -->
<svg width="61.666mm" height="14.83mm" version="1.1" viewBox="0 0 61.666355 14.830077" xmlns="http://www.w3.org/2000/svg" xmlns:cc="http://creativecommons.org/ns#" xmlns:dc="http://purl.org/dc/elements/1.1/" xmlns:osb="http://www.openswatchbook.org/uri/2009/osb" xmlns:rdf="http://www.w3.org/1999/02/22-rdf-syntax-ns#" xmlns:xlink="http://www.w3.org/1999/xlink">
 <defs>
  <linearGradient id="EDM_Flare" x1="263.61" x2="258.14" y1="98.738" y2="255.57" gradientTransform="scale(.63545 1.5737)" gradientUnits="userSpaceOnUse">
   <stop stop-color="#ff7f00" stop-opacity=".996" offset=".015625"/>
   <stop stop-color="#db3837" offset=".54688"/>
   <stop stop-color="#f90" offset="1"/>
  </linearGradient>
  <linearGradient id="a" x1=".48438" x2=".48047" y1=".074219" y2=".81641">
   <stop stop-color="#ff7f00" stop-opacity=".996" offset=".007813"/>
   <stop stop-color="#bf0000" stop-opacity=".996" offset="1"/>
  </linearGradient>
  <linearGradient id="linearGradient1620" x1="263.61" x2="262.7" y1="39.471" y2="212.72" gradientTransform="scale(.63545 1.5737)" gradientUnits="userSpaceOnUse" xlink:href="#a"/>
  <linearGradient id="linearGradient1624" x1="352.37" x2="351.83" y1="115.07" y2="217.1" gradientTransform="scale(.66812 1.4967)" gradientUnits="userSpaceOnUse" xlink:href="#a"/>
  <linearGradient id="linearGradient1628" x1="417.44" x2="416.92" y1="141.52" y2="241.66" gradientTransform="scale(.67454 1.4825)" gradientUnits="userSpaceOnUse" xlink:href="#a"/>
  <linearGradient id="linearGradient1632" x1="346.91" x2="346.21" y1="129.52" y2="262.49" gradientTransform="scale(.74783 1.3372)" gradientUnits="userSpaceOnUse" xlink:href="#a"/>
  <linearGradient id="linearGradient3270" x1="95.666" x2="328.51" y1="218.52" y2="218.52" gradientUnits="userSpaceOnUse" xlink:href="#EDM_Flare"/>
  <linearGradient id="linearGradient3272" x1="-1398.7" x2="-1351.6" y1="54.245" y2="54.245" gradientTransform="translate(0 .066144)" gradientUnits="userSpaceOnUse" xlink:href="#EDM_Flare"/>
 </defs>
 <metadata>
  <rdf:RDF>
   <cc:Work rdf:about="">
    <dc:format>image/svg+xml</dc:format>
    <dc:type rdf:resource="http://purl.org/dc/dcmitype/StillImage"/>
    <dc:title/>
   </cc:Work>
  </rdf:RDF>
 </metadata>
 <g transform="translate(1398.8 -46.896)">
  <rect x="-1398.8" y="46.903" width="61.648" height="14.817" fill="#fff" opacity="0" stroke-width=".1389"/>
  <text x="-1399.6459" y="57.863693" fill="url(#linearGradient3272)" font-family="'Malayalam Sangam MN'" font-size="10.583px" font-weight="bold" letter-spacing="0px" stroke-width=".26458" word-spacing="0px" style="font-feature-settings:normal;font-variant-caps:normal;font-variant-ligatures:normal;font-variant-numeric:normal;line-height:1.25" xml:space="preserve"><tspan x="-1399.6459" y="57.863693" fill="url(#linearGradient3272)" font-family="'Malayalam Sangam MN'" font-size="10.583px" font-weight="bold" stroke-width=".26458" style="font-feature-settings:normal;font-variant-caps:normal;font-variant-ligatures:normal;font-variant-numeric:normal">EDM Flare</tspan></text>
  <g transform="matrix(.040372 0 0 .040372 -1350.4 45.489)" fill="url(#linearGradient3270)" stroke-width="0">
   <text x="71" y="231" font-family="Arial" font-size="24px" opacity=".5" stroke="#096388" stroke-linejoin="null" text-anchor="middle" xml:space="preserve"/>
   <path d="m187 43.5c32.567 40.133-16.167 101-76 203.5s74 154.17 84.667 155.17-52-39.167-32.167-100.17c19.833-61 67.533-95.533 79.5-142.1s-88.567-156.53-56-116.4z" stroke="url(#linearGradient1620)" stroke-linejoin="round"/>
   <g stroke-linejoin="null">
    <path transform="rotate(-3.264,236.86,259.84)" d="m268.56 161.45c2.8655 6.7754 3.6942 18.909-0.71606 32.924-4.4103 14.014-10.06 24.309-22.15 41.006s-23.67 27.389-47.304 63.122c-23.633 35.733 17.157 74.648 9.8644 61.651s5.298-36.78 17.459-52.519c12.161-15.738 20.191-22.921 32.048-38.12s23.687-39.454 24.555-53.206c0.86816-13.752 0.95346-18.142-3.6351-33.244s-15.853-35.165-10.122-21.614z" stroke="url(#linearGradient1624)"/>
    <path d="m241.62 393.22c-5.1723 9.1626-6.6482-19.291 2.5574-43.922s38.264-46.296 50.758-69.597 20.385-58.537 10.368-77.282 1.7688 2.1575 10.212 15.57c8.4437 13.413 13.196 23.27 12.985 45.203-0.21112 21.933-5.9426 47.65-43.783 81.278-37.841 33.628-37.925 39.587-43.097 48.75z" stroke="url(#linearGradient1628)"/>
   </g>
  </g>
 </g>
</svg>
